<svg width="23" height="19" viewBox="0 0 23 19" fill="none" xmlns="http://www.w3.org/2000/svg">
<path d="M0.944 18V0.48H4.208L9.32 15.048C9.288 14.584 9.248 14.032 9.2 13.392C9.152 12.752 9.112 12.088 9.08 11.4C9.064 10.712 9.056 10.088 9.056 9.528V0.48H11.456V18H8.192L3.104 3.432C3.136 3.848 3.168 4.368 3.2 4.992C3.248 5.616 3.28 6.264 3.296 6.936C3.328 7.608 3.344 8.232 3.344 8.808V18H0.944ZM20.5906 18.24C19.9506 18.24 19.4386 18.056 19.0546 17.688C18.6706 17.304 18.4786 16.792 18.4786 16.152C18.4786 15.496 18.6706 14.976 19.0546 14.592C19.4386 14.192 19.9506 13.992 20.5906 13.992C21.2466 13.992 21.7586 14.192 22.1266 14.592C22.5106 14.976 22.7026 15.496 22.7026 16.152C22.7026 16.792 22.5106 17.304 22.1266 17.688C21.7586 18.056 21.2466 18.24 20.5906 18.24Z" fill="#5E24EF"/>
</svg>
