<svg width="24" height="24" viewBox="0 0 24 24" fill="none" xmlns="http://www.w3.org/2000/svg">
<g clip-path="url(#clip0_6_152)">
<path d="M0 2.66667C0 1.194 1.194 0 2.66667 0H21.3333C22.806 0 24 1.194 24 2.66667V21.3333C24 22.806 22.806 24 21.3333 24H2.66667C1.194 24 0 22.806 0 21.3333V2.66667Z" fill="#FF41C8"/>
<path d="M2 2V22H22V2H2ZM8.72867 10.4633L10.0047 7.208H12.1987L9.972 11.9087L12.2507 16.6873H10.0307L8.72867 13.3733L7.43333 16.6873H5.21333L7.492 11.9087L5.25867 7.208H7.45267L8.72867 10.4633ZM12.7127 12.9507C12.7127 11.796 12.908 10.9347 13.2987 10.366C13.6893 9.79733 14.2573 9.51333 15.0047 9.51333C15.5467 9.51333 15.9987 9.748 16.3587 10.2167V6.688H18.214V16.688H16.5407L16.456 15.972C16.0787 16.5367 15.592 16.8187 14.9973 16.8187C14.26 16.8187 13.6967 16.5367 13.308 15.972C12.9193 15.4073 12.7207 14.5787 12.712 13.4853L12.7127 12.9507ZM14.562 13.4127C14.562 14.1073 14.6353 14.5927 14.7833 14.868C14.9313 15.1433 15.1807 15.2813 15.532 15.2813C15.8967 15.2813 16.172 15.1187 16.3587 14.7933V11.5773C16.1767 11.23 15.9027 11.0567 15.5387 11.0567C15.2 11.0567 14.9527 11.1933 14.7967 11.4667C14.6407 11.74 14.562 12.2267 14.562 12.9253V13.4127Z" fill="#16020B"/>
</g>
<defs>
<clipPath id="clip0_6_152">
<rect width="24" height="24" fill="white"/>
</clipPath>
</defs>
</svg>
