<svg width="24" height="24" viewBox="0 0 24 24" fill="none" xmlns="http://www.w3.org/2000/svg">
<g clip-path="url(#clip0_6_148)">
<path d="M12 0.0300293C8.82533 0.0300293 5.78071 1.29115 3.5359 3.53596C1.29109 5.78077 0.0299683 8.82539 0.0299683 12C0.0299683 15.1747 1.29109 18.2193 3.5359 20.4641C5.78071 22.7089 8.82533 23.97 12 23.97C15.1746 23.97 18.2192 22.7089 20.464 20.4641C22.7088 18.2193 23.97 15.1747 23.97 12C23.97 8.82539 22.7088 5.78077 20.464 3.53596C18.2192 1.29115 15.1746 0.0300293 12 0.0300293Z" fill="white"/>
<path d="M2.40057 12C2.40057 15.8016 4.60857 19.0836 7.81137 20.64L3.23097 8.09282C2.69877 9.28743 2.40057 10.6056 2.40057 12ZM18.4824 11.5164C18.4824 10.3302 17.8446 9.50642 17.4804 8.86922C16.9926 8.07182 16.5348 7.40702 16.5348 6.61802C16.5348 5.73902 17.4174 4.91402 18.3594 4.91402C18.402 4.91402 18.4404 4.91762 18.483 4.91882C16.7766 3.35042 14.5008 2.40002 12.0006 2.40002C8.76717 2.40002 5.90877 3.99962 4.16937 6.44942C4.30617 6.49382 4.35357 6.47282 4.53597 6.47282C5.53737 6.47282 7.09437 6.35282 7.09437 6.35282C7.61037 6.31862 7.67337 7.08002 7.15377 7.14242C7.15377 7.14242 6.63537 7.20542 6.05697 7.23362L9.61557 17.9004L11.7156 11.5998L10.1538 7.25102C9.63717 7.22342 9.14637 7.15982 9.14637 7.15982C8.62917 7.12622 8.68917 6.33482 9.20517 6.37022C9.20517 6.37022 10.794 6.49022 11.7354 6.49022C12.7404 6.49022 14.2938 6.37022 14.2938 6.37022C14.8104 6.33602 14.8728 7.09742 14.3562 7.15982C14.3562 7.15982 13.8342 7.22282 13.257 7.25102L16.7916 17.817L17.751 14.6214C18.2394 13.3734 18.4824 12.3414 18.4824 11.5164ZM12.1686 12.8376L9.28857 21.2088C10.1502 21.4644 11.0586 21.6 12.0006 21.6C13.1172 21.6 14.19 21.4056 15.1902 21.0558C15.1662 21.0132 15.1392 20.97 15.1194 20.9238L12.1686 12.8376ZM20.4258 7.39083C20.4684 7.69683 20.4906 8.02622 20.4906 8.37782C20.4906 9.35462 20.307 10.4484 19.7592 11.82L16.8282 20.301C19.683 18.6378 21.6 15.5412 21.6 12C21.6 10.3314 21.1734 8.76242 20.4258 7.39083Z" fill="#01579B"/>
<path d="M0 12C0 18.6144 5.382 24 11.9994 24C18.618 24 24 18.6144 24 12C24 5.3856 18.618 0 12 0C5.382 0 0 5.3856 0 12ZM1.197 12C1.197 6.0456 6.0414 1.2006 11.9994 1.2006C17.9574 1.2006 22.803 6.0456 22.803 12C22.803 17.9544 17.9574 22.8006 12 22.8006C6.0432 22.8006 1.197 17.9544 1.197 12Z" fill="#01579B"/>
</g>
<defs>
<clipPath id="clip0_6_148">
<rect width="24" height="24" fill="white"/>
</clipPath>
</defs>
</svg>
