<svg width="53" height="32" viewBox="0 0 53 32" fill="none" xmlns="http://www.w3.org/2000/svg">
<g clip-path="url(#clip0_6_57)">
<path d="M26.5 0.114777C19.4333 0.114777 15.0167 3.64471 13.25 10.7046C15.9 7.17464 18.9917 5.8516 22.525 6.73326C24.5412 7.23643 25.9821 8.6985 27.5777 10.3162C30.1747 12.9501 33.1813 16 39.75 16C46.8167 16 51.2333 12.4701 53 5.40912C50.35 8.93905 47.2583 10.2632 43.725 9.38154C41.7099 8.87836 40.269 7.41629 38.6734 5.79864C36.0753 3.1636 33.0676 0.114777 26.5 0.114777ZM13.25 16C6.18333 16 1.76667 19.5299 0 26.5909C2.65 23.061 5.74167 21.7368 9.275 22.6196C11.2901 23.1239 12.731 24.5848 14.3266 26.2014C16.9247 28.8364 19.9324 31.8864 26.5 31.8864C33.5667 31.8864 37.9833 28.3564 39.75 21.2955C37.1 24.8254 34.0083 26.1495 30.475 25.2668C28.4588 24.7636 27.0179 23.3015 25.4223 21.685C22.8253 19.0499 19.8187 16 13.25 16Z" fill="#00ACC1"/>
</g>
<defs>
<clipPath id="clip0_6_57">
<rect width="53" height="32" fill="white"/>
</clipPath>
</defs>
</svg>
