<svg width="24" height="23" viewBox="0 0 24 23" fill="none" xmlns="http://www.w3.org/2000/svg">
<g clip-path="url(#clip0_10_33)">
<path fill-rule="evenodd" clip-rule="evenodd" d="M12 0.0200195C5.43993 0.0200195 0.120392 5.28955 0.120392 11.7906C0.120392 16.9913 3.52426 21.4032 8.24439 22.9598C8.8379 23.0689 9.05587 22.7045 9.05587 22.3936C9.05587 22.1129 9.04485 21.1857 9.03974 20.2021C5.73482 20.9142 5.03744 18.8134 5.03744 18.8134C4.49705 17.4529 3.71842 17.0911 3.71842 17.0911C2.64039 16.3605 3.79967 16.3757 3.79967 16.3757C4.99239 16.4586 5.62072 17.5887 5.62072 17.5887C6.68026 19.3878 8.3998 18.8677 9.0777 18.5672C9.18433 17.8064 9.4922 17.287 9.83193 16.993C7.19331 16.6958 4.41934 15.6863 4.41934 11.1762C4.41934 9.89111 4.88361 8.8411 5.64354 8.01661C5.52 7.72034 5.11338 6.52317 5.75842 4.90187C5.75842 4.90187 6.7558 4.58552 9.02597 6.10839C9.97377 5.8474 10.9902 5.71622 12 5.71174C13.0092 5.71622 14.0262 5.84701 14.9758 6.108C17.2432 4.58513 18.2394 4.90148 18.2394 4.90148C18.886 6.52259 18.4794 7.71995 18.3561 8.01622C19.1178 8.84071 19.5787 9.89072 19.5787 11.1758C19.5787 15.6967 16.7996 16.6919 14.1543 16.9835C14.5806 17.3488 14.9603 18.0653 14.9603 19.1632C14.9603 20.7381 14.9465 22.0057 14.9465 22.3934C14.9465 22.7066 15.1605 23.0736 15.7625 22.958C20.4799 21.3999 23.8798 16.9893 23.8798 11.7906C23.8796 5.28994 18.5607 0.0200195 12 0.0200195Z" fill="#00E8CF"/>
<path d="M4.6198 16.9197C4.59364 16.9782 4.50079 16.9957 4.4162 16.9558C4.32964 16.9176 4.28144 16.8378 4.30938 16.7792C4.33495 16.7188 4.428 16.7022 4.51397 16.7425C4.60052 16.7809 4.6497 16.8614 4.61961 16.9199L4.6198 16.9197ZM5.10098 17.4516C5.04452 17.5037 4.93377 17.4795 4.85862 17.3971C4.78072 17.3152 4.76616 17.2055 4.8238 17.1526C4.88242 17.1008 4.98983 17.1253 5.06774 17.2072C5.14524 17.2902 5.16059 17.399 5.10118 17.4518L5.10098 17.4516ZM5.56957 18.1294C5.49679 18.1796 5.37757 18.1327 5.304 18.028C5.23121 17.9231 5.23121 17.7974 5.30597 17.7473C5.37934 17.697 5.49679 17.7424 5.57154 17.8461C5.64393 17.9524 5.64393 18.0783 5.56957 18.1294ZM6.21108 18.7845C6.14616 18.8556 6.00728 18.8365 5.90577 18.7396C5.8021 18.6447 5.77318 18.5096 5.83829 18.4387C5.90439 18.3673 6.04387 18.3872 6.14597 18.4835C6.24964 18.5782 6.28092 18.7135 6.21147 18.7843L6.21108 18.7845ZM7.09633 19.1647C7.06741 19.2569 6.93403 19.2988 6.79928 19.2595C6.66492 19.2191 6.57698 19.1113 6.60452 19.0182C6.63206 18.9252 6.76642 18.8817 6.90197 18.9236C7.03633 18.9638 7.12426 19.071 7.09633 19.1647ZM8.06872 19.2351C8.07206 19.3322 7.95797 19.4125 7.81692 19.4144C7.67469 19.4177 7.55961 19.339 7.55823 19.2435C7.55823 19.1454 7.66997 19.0661 7.812 19.0634C7.95305 19.0609 8.06892 19.1388 8.06892 19.2349L8.06872 19.2351ZM8.97324 19.0827C8.99016 19.1772 8.892 19.2745 8.75174 19.3004C8.61403 19.3257 8.48616 19.2669 8.46846 19.1731C8.45154 19.0761 8.55147 18.9788 8.68918 18.9536C8.82964 18.9297 8.95554 18.9866 8.97324 19.0827Z" fill="#00E8CF"/>
</g>
<defs>
<clipPath id="clip0_10_33">
<rect width="24" height="23" fill="white"/>
</clipPath>
</defs>
</svg>
