<svg width="21" height="32" viewBox="0 0 21 32" fill="none" xmlns="http://www.w3.org/2000/svg">
<g clip-path="url(#clip0_6_59)">
<path d="M11.25 10.6667H5.25C2.3505 10.6667 0 8.27886 0 5.33333C0 2.38781 2.3505 0 5.25 0H11.25V10.6667Z" fill="#E64A19"/>
<path d="M10.5 21.3333H5.25C2.3505 21.3333 0 18.9455 0 16C0 13.0545 2.3505 10.6667 5.25 10.6667H10.5V21.3333Z" fill="#7C4DFF"/>
<path d="M5.25 32C2.3505 32 0 29.6122 0 26.6667C0 23.7212 2.3505 21.3333 5.25 21.3333H10.5V26.6667C10.5 29.6122 8.1495 32 5.25 32Z" fill="#66BB6A"/>
<path d="M15.75 10.6667H10.5V0H15.75C18.6495 0 21 2.38781 21 5.33333C21 8.27886 18.6495 10.6667 15.75 10.6667Z" fill="#FF7043"/>
<path d="M15.75 21.3333C18.6495 21.3333 21 18.9455 21 16C21 13.0545 18.6495 10.6667 15.75 10.6667C12.8505 10.6667 10.5 13.0545 10.5 16C10.5 18.9455 12.8505 21.3333 15.75 21.3333Z" fill="#29B6F6"/>
</g>
<defs>
<clipPath id="clip0_6_59">
<rect width="21" height="32" fill="white"/>
</clipPath>
</defs>
</svg>
