<svg width="28" height="22" viewBox="0 0 28 22" fill="none" xmlns="http://www.w3.org/2000/svg">
<path d="M27.2913 3.69C27.1735 3.22919 26.9478 2.80298 26.6329 2.44654C26.318 2.09011 25.9228 1.81366 25.48 1.64C21.195 -0.0149953 14.375 4.75492e-06 14 4.75492e-06C13.625 4.75492e-06 6.805 -0.0149953 2.52 1.64C2.0772 1.81366 1.68204 2.09011 1.36712 2.44654C1.05219 2.80298 0.826532 3.22919 0.70875 3.69C0.385 4.9375 0 7.2175 0 11C0 14.7825 0.385 17.0625 0.70875 18.31C0.826356 18.771 1.05194 19.1975 1.36687 19.5542C1.68181 19.9108 2.07706 20.1875 2.52 20.3613C6.625 21.945 13.05 22 13.9175 22H14.0825C14.95 22 21.3787 21.945 25.48 20.3613C25.9229 20.1875 26.3182 19.9108 26.6331 19.5542C26.9481 19.1975 27.1736 18.771 27.2913 18.31C27.615 17.06 28 14.7825 28 11C28 7.2175 27.615 4.9375 27.2913 3.69ZM18.0737 11.815L13.0737 15.315C12.9242 15.4198 12.7488 15.4816 12.5666 15.4938C12.3844 15.5059 12.2023 15.4679 12.0401 15.384C11.878 15.3 11.7419 15.1732 11.6467 15.0174C11.5515 14.8615 11.5007 14.6826 11.5 14.5V7.5C11.5001 7.31707 11.5503 7.13765 11.6452 6.98129C11.7402 6.82492 11.8762 6.69759 12.0385 6.61316C12.2008 6.52873 12.3831 6.49044 12.5656 6.50244C12.7482 6.51445 12.9239 6.5763 13.0737 6.68125L18.0737 10.1813C18.2053 10.2735 18.3126 10.396 18.3868 10.5386C18.4609 10.6811 18.4996 10.8394 18.4996 11C18.4996 11.1606 18.4609 11.3189 18.3868 11.4614C18.3126 11.604 18.2053 11.7265 18.0737 11.8188V11.815Z" fill="#5E24EF"/>
</svg>
